<svg width="45" height="45" viewBox="0 0 45 45" fill="none" xmlns="http://www.w3.org/2000/svg">
<rect width="45" height="45" rx="10" fill="#111111"/>
<path d="M14.808 31.36C13.688 31.36 12.636 31.164 11.652 30.772C10.676 30.372 9.816 29.788 9.072 29.02C8.336 28.252 7.76 27.312 7.344 26.2C6.928 25.08 6.72 23.8 6.72 22.36C6.72 20.472 7.072 18.86 7.776 17.524C8.48 16.18 9.444 15.152 10.668 14.44C11.892 13.72 13.272 13.36 14.808 13.36C16.936 13.36 18.62 13.856 19.86 14.848C21.108 15.832 21.952 17.216 22.392 19L19.44 19.468C19.112 18.444 18.576 17.628 17.832 17.02C17.088 16.404 16.14 16.096 14.988 16.096C13.828 16.08 12.864 16.332 12.096 16.852C11.328 17.372 10.748 18.104 10.356 19.048C9.972 19.992 9.78 21.096 9.78 22.36C9.78 23.624 9.972 24.724 10.356 25.66C10.74 26.588 11.316 27.312 12.084 27.832C12.86 28.352 13.828 28.62 14.988 28.636C15.86 28.644 16.624 28.488 17.28 28.168C17.936 27.84 18.472 27.348 18.888 26.692C19.304 26.028 19.584 25.2 19.728 24.208H16.68V21.94H22.8C22.816 22.068 22.828 22.256 22.836 22.504C22.844 22.752 22.848 22.9 22.848 22.948C22.848 24.58 22.524 26.032 21.876 27.304C21.236 28.568 20.316 29.56 19.116 30.28C17.916 31 16.48 31.36 14.808 31.36Z" fill="#F9C920"/>
<path d="M25.2581 31V13.72H32.1101C33.2781 13.72 34.2341 13.956 34.9781 14.428C35.7301 14.892 36.2861 15.488 36.6461 16.216C37.0141 16.944 37.1981 17.696 37.1981 18.472C37.1981 19.424 36.9701 20.232 36.5141 20.896C36.0661 21.56 35.4541 22.008 34.6781 22.24V21.64C35.7661 21.888 36.5901 22.404 37.1501 23.188C37.7181 23.972 38.0021 24.864 38.0021 25.864C38.0021 26.888 37.8061 27.784 37.4141 28.552C37.0221 29.32 36.4381 29.92 35.6621 30.352C34.8941 30.784 33.9421 31 32.8061 31H25.2581ZM28.1861 28.276H32.4461C32.9501 28.276 33.4021 28.176 33.8021 27.976C34.2021 27.768 34.5141 27.48 34.7381 27.112C34.9701 26.736 35.0861 26.292 35.0861 25.78C35.0861 25.316 34.9861 24.9 34.7861 24.532C34.5861 24.164 34.2941 23.872 33.9101 23.656C33.5261 23.432 33.0661 23.32 32.5301 23.32H28.1861V28.276ZM28.1861 20.62H32.0741C32.4901 20.62 32.8621 20.54 33.1901 20.38C33.5181 20.22 33.7781 19.984 33.9701 19.672C34.1621 19.36 34.2581 18.976 34.2581 18.52C34.2581 17.92 34.0661 17.42 33.6821 17.02C33.2981 16.62 32.7621 16.42 32.0741 16.42H28.1861V20.62Z" fill="white"/>
</svg>
