<svg width="167" height="19" viewBox="0 0 167 19" fill="none" xmlns="http://www.w3.org/2000/svg">
<path d="M8.808 18.36C7.688 18.36 6.636 18.164 5.652 17.772C4.676 17.372 3.816 16.788 3.072 16.02C2.336 15.252 1.76 14.312 1.344 13.2C0.928 12.08 0.72 10.8 0.72 9.36C0.72 7.472 1.072 5.86 1.776 4.524C2.48 3.18 3.444 2.152 4.668 1.44C5.892 0.719999 7.272 0.36 8.808 0.36C10.936 0.36 12.62 0.855999 13.86 1.848C15.108 2.832 15.952 4.216 16.392 6L13.44 6.468C13.112 5.444 12.576 4.628 11.832 4.02C11.088 3.404 10.14 3.096 8.988 3.096C7.828 3.08 6.864 3.332 6.096 3.852C5.328 4.372 4.748 5.104 4.356 6.048C3.972 6.992 3.78 8.096 3.78 9.36C3.78 10.624 3.972 11.724 4.356 12.66C4.74 13.588 5.316 14.312 6.084 14.832C6.86 15.352 7.828 15.62 8.988 15.636C9.86 15.644 10.624 15.488 11.28 15.168C11.936 14.84 12.472 14.348 12.888 13.692C13.304 13.028 13.584 12.2 13.728 11.208H10.68V8.94H16.8C16.816 9.068 16.828 9.256 16.836 9.504C16.844 9.752 16.848 9.9 16.848 9.948C16.848 11.58 16.524 13.032 15.876 14.304C15.236 15.568 14.316 16.56 13.116 17.28C11.916 18 10.48 18.36 8.808 18.36ZM19.2581 18V0.719999H24.7661C24.9101 0.719999 25.1941 0.724 25.6181 0.732C26.0501 0.739999 26.4661 0.767999 26.8661 0.816C28.2341 0.991999 29.3901 1.48 30.3341 2.28C31.2861 3.072 32.0061 4.084 32.4941 5.316C32.9821 6.548 33.2261 7.896 33.2261 9.36C33.2261 10.824 32.9821 12.172 32.4941 13.404C32.0061 14.636 31.2861 15.652 30.3341 16.452C29.3901 17.244 28.2341 17.728 26.8661 17.904C26.4741 17.952 26.0621 17.98 25.6301 17.988C25.1981 17.996 24.9101 18 24.7661 18H19.2581ZM22.1981 15.276H24.7661C25.0061 15.276 25.3101 15.268 25.6781 15.252C26.0541 15.236 26.3861 15.2 26.6741 15.144C27.4901 14.992 28.1541 14.628 28.6661 14.052C29.1781 13.476 29.5541 12.776 29.7941 11.952C30.0421 11.128 30.1661 10.264 30.1661 9.36C30.1661 8.424 30.0421 7.544 29.7941 6.72C29.5461 5.896 29.1621 5.204 28.6421 4.644C28.1301 4.084 27.4741 3.728 26.6741 3.576C26.3861 3.512 26.0541 3.476 25.6781 3.468C25.3101 3.452 25.0061 3.444 24.7661 3.444H22.1981V15.276ZM36.0628 18V0.719999H47.2228V3.432H38.9548V7.692H45.7828V10.404H38.9548V15.288H47.2228V18H36.0628Z" fill="#F9C920"/>
<path d="M50.1019 18V0.719999H56.9539C58.1219 0.719999 59.0779 0.955999 59.8219 1.428C60.5739 1.892 61.1299 2.488 61.4899 3.216C61.8579 3.944 62.0419 4.696 62.0419 5.472C62.0419 6.424 61.8139 7.232 61.3579 7.896C60.9099 8.56 60.2979 9.008 59.5219 9.24V8.64C60.6099 8.888 61.4339 9.404 61.9939 10.188C62.5619 10.972 62.8459 11.864 62.8459 12.864C62.8459 13.888 62.6499 14.784 62.2579 15.552C61.8659 16.32 61.2819 16.92 60.5059 17.352C59.7379 17.784 58.7859 18 57.6499 18H50.1019ZM53.0299 15.276H57.2899C57.7939 15.276 58.2459 15.176 58.6459 14.976C59.0459 14.768 59.3579 14.48 59.5819 14.112C59.8139 13.736 59.9299 13.292 59.9299 12.78C59.9299 12.316 59.8299 11.9 59.6299 11.532C59.4299 11.164 59.1379 10.872 58.7539 10.656C58.3699 10.432 57.9099 10.32 57.3739 10.32H53.0299V15.276ZM53.0299 7.62H56.9179C57.3339 7.62 57.7059 7.54 58.0339 7.38C58.3619 7.22 58.6219 6.984 58.8139 6.672C59.0059 6.36 59.1019 5.976 59.1019 5.52C59.1019 4.92 58.9099 4.42 58.5259 4.02C58.1419 3.62 57.6059 3.42 56.9179 3.42H53.0299V7.62ZM65.2425 18V0.719999H76.4025V3.432H68.1345V7.692H74.9625V10.404H68.1345V15.288H76.4025V18H65.2425ZM83.4336 18V3.432H77.8416V0.719999H91.9176V3.432H86.3256V18H83.4336ZM101.144 18.36C99.4163 18.36 97.9363 17.984 96.7043 17.232C95.4723 16.472 94.5243 15.416 93.8603 14.064C93.2043 12.712 92.8763 11.144 92.8763 9.36C92.8763 7.576 93.2043 6.008 93.8603 4.656C94.5243 3.304 95.4723 2.252 96.7043 1.5C97.9363 0.739999 99.4163 0.36 101.144 0.36C102.872 0.36 104.352 0.739999 105.584 1.5C106.824 2.252 107.772 3.304 108.428 4.656C109.092 6.008 109.424 7.576 109.424 9.36C109.424 11.144 109.092 12.712 108.428 14.064C107.772 15.416 106.824 16.472 105.584 17.232C104.352 17.984 102.872 18.36 101.144 18.36ZM101.144 15.636C102.304 15.644 103.268 15.388 104.036 14.868C104.812 14.348 105.392 13.616 105.776 12.672C106.168 11.728 106.364 10.624 106.364 9.36C106.364 8.096 106.168 7 105.776 6.072C105.392 5.136 104.812 4.408 104.036 3.888C103.268 3.368 102.304 3.1 101.144 3.084C99.9843 3.076 99.0203 3.332 98.2523 3.852C97.4843 4.372 96.9043 5.104 96.5123 6.048C96.1283 6.992 95.9363 8.096 95.9363 9.36C95.9363 10.624 96.1283 11.724 96.5123 12.66C96.8963 13.588 97.4723 14.312 98.2403 14.832C99.0163 15.352 99.9843 15.62 101.144 15.636ZM111.813 18V0.719999H114.741L122.757 12.9V0.719999H125.685V18H122.757L114.741 5.82V18H111.813ZM129.519 18V15.036H132.483V18H129.519ZM136.328 18V0.719999H143.468C143.636 0.719999 143.852 0.727999 144.116 0.743999C144.38 0.751999 144.624 0.776 144.848 0.816C145.848 0.967999 146.672 1.3 147.32 1.812C147.976 2.324 148.46 2.972 148.772 3.756C149.092 4.532 149.252 5.396 149.252 6.348C149.252 7.756 148.896 8.968 148.184 9.984C147.472 10.992 146.38 11.616 144.908 11.856L143.672 11.964H139.22V18H136.328ZM146.252 18L142.844 10.968L145.784 10.32L149.528 18H146.252ZM139.22 9.264H143.348C143.508 9.264 143.688 9.256 143.888 9.24C144.088 9.224 144.272 9.192 144.44 9.144C144.92 9.024 145.296 8.812 145.568 8.508C145.848 8.204 146.044 7.86 146.156 7.476C146.276 7.092 146.336 6.716 146.336 6.348C146.336 5.98 146.276 5.604 146.156 5.22C146.044 4.828 145.848 4.48 145.568 4.176C145.296 3.872 144.92 3.66 144.44 3.54C144.272 3.492 144.088 3.464 143.888 3.456C143.688 3.44 143.508 3.432 143.348 3.432H139.22V9.264ZM159.132 18.36C157.756 18.36 156.544 18.08 155.496 17.52C154.456 16.96 153.64 16.172 153.048 15.156C152.464 14.14 152.172 12.948 152.172 11.58V0.743999L155.1 0.719999V11.508C155.1 12.156 155.208 12.736 155.424 13.248C155.648 13.76 155.948 14.196 156.324 14.556C156.7 14.908 157.132 15.176 157.62 15.36C158.108 15.544 158.612 15.636 159.132 15.636C159.668 15.636 160.176 15.544 160.656 15.36C161.144 15.168 161.576 14.896 161.952 14.544C162.328 14.184 162.624 13.748 162.84 13.236C163.056 12.724 163.164 12.148 163.164 11.508V0.719999H166.092V11.58C166.092 12.948 165.796 14.14 165.204 15.156C164.62 16.172 163.804 16.96 162.756 17.52C161.716 18.08 160.508 18.36 159.132 18.36Z" fill="white"/>
</svg>
